{
 "asset": {
  "version": "2.0",
  "generator": "mulligan-hills make_golfer_gltf.py",
  "extras": {
   "variant": {
    "seed": 1,
    "skin": "#e0a97e",
    "hair": "#8c8c8c",
    "hair_style": "short",
    "headwear": "visor",
    "headwear_col": "#d9483b",
    "shirt": "#e8792b",
    "sleeves": "short",
    "bottoms": "shorts",
    "pants": "#8a8f99",
    "shoes": "#c9b48a",
    "glove": true,
    "height_scale": 0.959,
    "girth": 0.907
   },
   "triangles": 1306,
   "vertices": 805
  }
 },
 "scene": 0,
 "scenes": [
  {
   "name": "Golfer",
   "nodes": [
    0,
    23
   ]
  }
 ],
 "nodes": [
  {
   "name": "Root",
   "translation": [
    0.0,
    0.0,
    0.0
   ],
   "children": [
    1
   ]
  },
  {
   "name": "Hips",
   "translation": [
    0.0,
    0.88228,
    0.0
   ],
   "children": [
    2,
    11,
    19
   ]
  },
  {
   "name": "Spine",
   "translation": [
    0.0,
    0.11508,
    0.0
   ],
   "children": [
    3
   ]
  },
  {
   "name": "Chest",
   "translation": [
    0.0,
    0.15344,
    0.0
   ],
   "children": [
    4
   ]
  },
  {
   "name": "UpperChest",
   "translation": [
    0.0,
    0.13426,
    0.0
   ],
   "children": [
    5,
    7,
    15
   ]
  },
  {
   "name": "Neck",
   "translation": [
    0.0,
    0.17262,
    0.0
   ],
   "children": [
    6
   ]
  },
  {
   "name": "Head",
   "translation": [
    0.0,
    0.07672,
    0.0
   ]
  },
  {
   "name": "LeftShoulder",
   "translation": [
    0.06713,
    0.0959,
    0.0
   ],
   "children": [
    8
   ]
  },
  {
   "name": "LeftUpperArm",
   "translation": [
    0.12467,
    0.0,
    0.0
   ],
   "children": [
    9
   ]
  },
  {
   "name": "LeftLowerArm",
   "translation": [
    0.24934,
    0.0,
    0.0
   ],
   "children": [
    10
   ]
  },
  {
   "name": "LeftHand",
   "translation": [
    0.23016,
    0.0,
    0.0
   ]
  },
  {
   "name": "LeftUpperLeg",
   "translation": [
    0.0959,
    -0.01918,
    0.0
   ],
   "children": [
    12
   ]
  },
  {
   "name": "LeftLowerLeg",
   "translation": [
    0.0,
    -0.40278,
    0.0
   ],
   "children": [
    13
   ]
  },
  {
   "name": "LeftFoot",
   "translation": [
    0.0,
    -0.37401,
    -0.01918
   ],
   "children": [
    14
   ]
  },
  {
   "name": "LeftToes",
   "translation": [
    0.0,
    -0.05754,
    0.12467
   ]
  },
  {
   "name": "RightShoulder",
   "translation": [
    -0.06713,
    0.0959,
    0.0
   ],
   "children": [
    16
   ]
  },
  {
   "name": "RightUpperArm",
   "translation": [
    -0.12467,
    0.0,
    0.0
   ],
   "children": [
    17
   ]
  },
  {
   "name": "RightLowerArm",
   "translation": [
    -0.24934,
    0.0,
    0.0
   ],
   "children": [
    18
   ]
  },
  {
   "name": "RightHand",
   "translation": [
    -0.23016,
    0.0,
    0.0
   ]
  },
  {
   "name": "RightUpperLeg",
   "translation": [
    -0.0959,
    -0.01918,
    0.0
   ],
   "children": [
    20
   ]
  },
  {
   "name": "RightLowerLeg",
   "translation": [
    0.0,
    -0.40278,
    0.0
   ],
   "children": [
    21
   ]
  },
  {
   "name": "RightFoot",
   "translation": [
    0.0,
    -0.37401,
    -0.01918
   ],
   "children": [
    22
   ]
  },
  {
   "name": "RightToes",
   "translation": [
    0.0,
    -0.05754,
    0.12467
   ]
  },
  {
   "name": "GolferMesh",
   "mesh": 0,
   "skin": 0
  }
 ],
 "skins": [
  {
   "name": "GolferSkin",
   "inverseBindMatrices": 6,
   "skeleton": 0,
   "joints": [
    0,
    1,
    2,
    3,
    4,
    5,
    6,
    7,
    8,
    9,
    10,
    11,
    12,
    13,
    14,
    15,
    16,
    17,
    18,
    19,
    20,
    21,
    22
   ]
  }
 ],
 "meshes": [
  {
   "name": "GolferMesh",
   "primitives": [
    {
     "attributes": {
      "POSITION": 0,
      "NORMAL": 1,
      "COLOR_0": 2,
      "JOINTS_0": 3,
      "WEIGHTS_0": 4
     },
     "indices": 5,
     "material": 0,
     "mode": 4
    }
   ]
  }
 ],
 "materials": [
  {
   "name": "ToonVertexColour",
   "pbrMetallicRoughness": {
    "baseColorFactor": [
     1,
     1,
     1,
     1
    ],
    "metallicFactor": 0.0,
    "roughnessFactor": 1.0
   },
   "doubleSided": false
  }
 ],
 "accessors": [
  {
   "bufferView": 0,
   "componentType": 5126,
   "count": 805,
   "type": "VEC3",
   "min": [
    -0.7785224817151944,
    0.006198975999999995,
    -0.13377764849361504
   ],
   "max": [
    0.7785224817151944,
    1.798125,
    0.27810999999999997
   ]
  },
  {
   "bufferView": 1,
   "componentType": 5126,
   "count": 805,
   "type": "VEC3"
  },
  {
   "bufferView": 2,
   "componentType": 5126,
   "count": 805,
   "type": "VEC4"
  },
  {
   "bufferView": 3,
   "componentType": 5121,
   "count": 805,
   "type": "VEC4"
  },
  {
   "bufferView": 4,
   "componentType": 5126,
   "count": 805,
   "type": "VEC4"
  },
  {
   "bufferView": 5,
   "componentType": 5123,
   "count": 3918,
   "type": "SCALAR"
  },
  {
   "bufferView": 6,
   "componentType": 5126,
   "count": 23,
   "type": "MAT4"
  }
 ],
 "bufferViews": [
  {
   "buffer": 0,
   "byteOffset": 0,
   "byteLength": 9660,
   "target": 34962
  },
  {
   "buffer": 0,
   "byteOffset": 9660,
   "byteLength": 9660,
   "target": 34962
  },
  {
   "buffer": 0,
   "byteOffset": 19320,
   "byteLength": 12880,
   "target": 34962
  },
  {
   "buffer": 0,
   "byteOffset": 32200,
   "byteLength": 3220,
   "target": 34962
  },
  {
   "buffer": 0,
   "byteOffset": 35420,
   "byteLength": 12880,
   "target": 34962
  },
  {
   "buffer": 0,
   "byteOffset": 48300,
   "byteLength": 7836,
   "target": 34963
  },
  {
   "buffer": 0,
   "byteOffset": 56136,
   "byteLength": 1472
  }
 ],
 "buffers": [
  {
   "uri": "golfer_placeholder.bin",
   "byteLength": 57608
  }
 ]
}